<svg width="1001.101" height="75.201" viewBox="0 0 1001.101 75.201"
    xmlns="http://www.w3.org/2000/svg">
    <g id="svgGroup" stroke-linecap="round" fill-rule="evenodd" font-size="9pt" stroke="#000"
        stroke-width="0.25mm" fill="#000" style="stroke:#000;stroke-width:0.25mm;fill:#000">
        <path
            d="M 57.701 62.4 L 66.601 67.3 L 62.301 75.2 L 52.601 68 A 31.258 31.258 0 0 1 46.61 71.914 A 37.52 37.52 0 0 1 43.901 73.15 A 27.019 27.019 0 0 1 37.287 74.887 A 35.306 35.306 0 0 1 32.501 75.2 A 34.822 34.822 0 0 1 24.652 74.348 A 28.732 28.732 0 0 1 18.851 72.35 Q 12.801 69.5 8.601 64.55 A 34.129 34.129 0 0 1 2.631 54.223 A 39.283 39.283 0 0 1 2.201 53 Q 0.001 46.4 0.001 38.9 A 46.749 46.749 0 0 1 1.101 28.563 A 38.315 38.315 0 0 1 3.901 20.45 Q 7.801 12.3 15.051 7.55 Q 22.301 2.8 32.501 2.8 A 35.418 35.418 0 0 1 40.35 3.637 A 29.08 29.08 0 0 1 46.151 5.6 Q 52.201 8.4 56.401 13.4 A 36 36 0 0 1 62.846 24.887 A 47.375 47.375 0 0 1 62.851 24.9 A 41.439 41.439 0 0 1 65.022 36.123 A 48.215 48.215 0 0 1 65.101 38.9 Q 65.101 46.152 63.199 51.631 A 27.738 27.738 0 0 1 62.901 52.45 Q 60.701 58.2 57.701 62.4 Z M 45.501 63.5 L 37.901 58.7 L 41.901 51.4 L 50.901 57.9 Q 53.301 54 54.351 49.35 A 41.439 41.439 0 0 0 55.17 44.085 A 55.717 55.717 0 0 0 55.401 38.9 Q 55.401 33.5 53.851 28.5 A 29.647 29.647 0 0 0 50.066 20.554 A 27.805 27.805 0 0 0 49.351 19.55 Q 46.401 15.6 42.151 13.3 A 19.165 19.165 0 0 0 34.848 11.114 A 23.691 23.691 0 0 0 32.501 11 A 23.683 23.683 0 0 0 26.309 11.775 A 18.838 18.838 0 0 0 20.201 14.65 A 22.551 22.551 0 0 0 13.303 22.696 A 27.531 27.531 0 0 0 12.401 24.6 A 33.09 33.09 0 0 0 10.049 33.37 A 42.465 42.465 0 0 0 9.701 38.9 Q 9.701 44.3 11.201 49.35 A 30.102 30.102 0 0 0 14.729 57.124 A 27.976 27.976 0 0 0 15.601 58.4 Q 18.501 62.4 22.701 64.7 A 18.74 18.74 0 0 0 29.676 66.856 A 23.421 23.421 0 0 0 32.301 67 A 29.177 29.177 0 0 0 36.445 66.718 A 22.935 22.935 0 0 0 39.751 66 A 27.908 27.908 0 0 0 42.683 64.953 Q 44.177 64.317 45.421 63.55 A 17.361 17.361 0 0 0 45.501 63.5 Z"
            id="0" vector-effect="non-scaling-stroke" />
        <path
            d="M 78.601 55.8 L 78.601 22 L 87.601 22 L 87.601 54.6 A 22.981 22.981 0 0 0 87.855 58.134 Q 88.143 59.981 88.757 61.469 A 10.136 10.136 0 0 0 90.201 63.95 A 8.404 8.404 0 0 0 95.314 66.971 A 12.807 12.807 0 0 0 97.801 67.2 Q 101.901 67.2 105.751 65.55 Q 109.601 63.9 112.601 61.1 L 112.601 22 L 121.601 22 L 121.601 60.5 A 15.602 15.602 0 0 0 121.702 62.354 Q 122.034 65.116 123.451 66.15 Q 125.301 67.5 127.501 67.5 L 125.601 74.5 Q 116.301 74.5 114.101 67.1 Q 110.601 70.7 106.001 72.95 Q 101.401 75.2 96.101 75.2 Q 91.601 75.2 87.601 73.3 A 14.441 14.441 0 0 1 82.091 68.661 A 18.266 18.266 0 0 1 81.101 67.15 A 16.24 16.24 0 0 1 79.436 63.057 Q 78.601 59.905 78.601 55.8 Z"
            id="1" vector-effect="non-scaling-stroke" />
        <path
            d="M 174.101 26.2 L 174.101 22 L 182.301 22 L 182.301 61.4 A 12.15 12.15 0 0 0 182.402 63.036 Q 182.734 65.47 184.151 66.35 Q 186.001 67.5 188.201 67.5 L 186.301 74.5 A 17.722 17.722 0 0 1 182.036 74.028 Q 176.399 72.628 174.804 67.08 A 13.59 13.59 0 0 1 174.701 66.7 A 21.307 21.307 0 0 1 171.591 70.126 A 28.498 28.498 0 0 1 168.451 72.55 Q 164.501 75.2 158.401 75.2 Q 151.901 75.2 146.601 71.9 A 22.947 22.947 0 0 1 139.188 64.373 A 27.923 27.923 0 0 1 138.151 62.55 A 27.228 27.228 0 0 1 135.521 54.608 A 36.644 36.644 0 0 1 135.001 48.3 A 33.142 33.142 0 0 1 135.997 40.031 A 27.968 27.968 0 0 1 138.151 34.3 Q 141.301 28.1 146.851 24.45 A 22.297 22.297 0 0 1 158.045 20.844 A 27.388 27.388 0 0 1 159.601 20.8 A 22.584 22.584 0 0 1 164.394 21.29 A 18.703 18.703 0 0 1 167.751 22.35 A 26.002 26.002 0 0 1 172.037 24.644 A 22.103 22.103 0 0 1 174.101 26.2 Z M 173.301 60.7 L 173.301 32.8 Q 170.601 30.9 167.351 29.75 Q 164.101 28.6 160.501 28.6 A 15.924 15.924 0 0 0 155.529 29.354 A 14.024 14.024 0 0 0 152.051 31.05 A 16.301 16.301 0 0 0 147.031 36.474 A 19.962 19.962 0 0 0 146.301 37.85 A 20.663 20.663 0 0 0 144.547 43.527 A 27.678 27.678 0 0 0 144.201 48 Q 144.201 53.6 146.301 57.95 A 17.602 17.602 0 0 0 149.406 62.496 A 15.697 15.697 0 0 0 152.101 64.75 Q 155.801 67.2 160.401 67.2 Q 164.201 67.2 167.601 65.35 Q 171.001 63.5 173.301 60.7 Z"
            id="2" vector-effect="non-scaling-stroke" />
        <path
            d="M 209.201 74 L 200.201 74 L 200.201 22 L 208.901 22 L 208.901 30.7 Q 211.701 26.5 216.051 23.65 A 17.316 17.316 0 0 1 223.156 21.025 A 22.629 22.629 0 0 1 226.401 20.8 A 23.225 23.225 0 0 1 231.466 21.318 Q 236.56 22.456 239.551 26.1 Q 243.676 31.126 243.889 39.209 A 33.764 33.764 0 0 1 243.901 40.1 L 243.901 74 L 234.901 74 L 234.901 41.1 A 19.265 19.265 0 0 0 234.558 37.359 Q 234.12 35.145 233.12 33.397 A 10.966 10.966 0 0 0 232.251 32.1 A 8.579 8.579 0 0 0 225.974 28.747 A 12.061 12.061 0 0 0 224.901 28.7 A 13.122 13.122 0 0 0 218.051 30.664 A 17.353 17.353 0 0 0 216.201 31.95 Q 212.101 35.2 209.201 39.6 L 209.201 74 Z"
            id="3" vector-effect="non-scaling-stroke" />
        <path
            d="M 261.401 56.1 L 261.401 31.7 L 252.401 31.7 L 252.401 23.9 L 261.601 23.9 L 263.501 7.5 L 270.401 7.5 L 270.401 23.9 L 284.801 23.9 L 284.801 31.7 L 270.401 31.7 L 270.401 56.8 A 21.559 21.559 0 0 0 270.568 59.596 Q 271.042 63.202 272.851 64.9 Q 275.301 67.2 278.701 67.2 Q 281.201 67.2 283.451 66.4 Q 285.701 65.6 287.601 64.5 L 290.101 71.7 A 18.546 18.546 0 0 1 288.482 72.556 Q 287.681 72.935 286.735 73.308 A 43.365 43.365 0 0 1 284.701 74.05 Q 281.301 75.2 277.601 75.2 Q 270.101 75.2 265.751 70.25 A 16.116 16.116 0 0 1 262.522 64.348 Q 261.76 61.917 261.516 58.98 A 34.777 34.777 0 0 1 261.401 56.1 Z"
            id="4" vector-effect="non-scaling-stroke" />
        <path
            d="M 298.101 55.8 L 298.101 22 L 307.101 22 L 307.101 54.6 A 22.981 22.981 0 0 0 307.355 58.134 Q 307.643 59.981 308.257 61.469 A 10.136 10.136 0 0 0 309.701 63.95 A 8.404 8.404 0 0 0 314.814 66.971 A 12.807 12.807 0 0 0 317.301 67.2 Q 321.401 67.2 325.251 65.55 Q 329.101 63.9 332.101 61.1 L 332.101 22 L 341.101 22 L 341.101 60.5 A 15.602 15.602 0 0 0 341.202 62.354 Q 341.534 65.116 342.951 66.15 Q 344.801 67.5 347.001 67.5 L 345.101 74.5 Q 335.801 74.5 333.601 67.1 Q 330.101 70.7 325.501 72.95 Q 320.901 75.2 315.601 75.2 Q 311.101 75.2 307.101 73.3 A 14.441 14.441 0 0 1 301.591 68.661 A 18.266 18.266 0 0 1 300.601 67.15 A 16.24 16.24 0 0 1 298.936 63.057 Q 298.101 59.905 298.101 55.8 Z"
            id="5" vector-effect="non-scaling-stroke" />
        <path
            d="M 368.001 74 L 359.001 74 L 359.001 22 L 367.701 22 L 367.701 30.7 Q 370.501 26.5 374.801 23.65 A 17.205 17.205 0 0 1 384.003 20.809 A 20.858 20.858 0 0 1 384.601 20.8 A 20.994 20.994 0 0 1 389.018 21.24 Q 392.004 21.882 394.286 23.463 A 13.128 13.128 0 0 1 394.751 23.8 A 15.751 15.751 0 0 1 400.198 31.489 A 19.154 19.154 0 0 1 400.301 31.8 Q 403.401 27.2 407.651 24 A 15.669 15.669 0 0 1 414.441 21.116 A 21.446 21.446 0 0 1 418.201 20.8 A 21.437 21.437 0 0 1 423.088 21.322 Q 426.674 22.162 429.163 24.351 A 12.994 12.994 0 0 1 430.851 26.15 A 18.992 18.992 0 0 1 434.262 33.422 Q 435.001 36.472 435.001 40.1 L 435.001 74 L 426.001 74 L 426.001 40.8 A 19.042 19.042 0 0 0 425.664 37.111 Q 425.228 34.905 424.229 33.161 A 10.982 10.982 0 0 0 423.501 32.05 A 7.974 7.974 0 0 0 417.687 28.754 A 10.678 10.678 0 0 0 416.601 28.7 A 11.926 11.926 0 0 0 409.842 30.827 A 15.996 15.996 0 0 0 408.251 32.05 Q 404.401 35.4 401.501 39.9 L 401.501 74 L 392.501 74 L 392.501 40.8 A 19.042 19.042 0 0 0 392.164 37.111 Q 391.728 34.905 390.729 33.161 A 10.982 10.982 0 0 0 390.001 32.05 A 7.974 7.974 0 0 0 384.187 28.754 A 10.678 10.678 0 0 0 383.101 28.7 A 12.02 12.02 0 0 0 376.782 30.528 A 16.244 16.244 0 0 0 374.801 31.95 Q 370.901 35.2 368.001 39.6 L 368.001 74 Z"
            id="6" vector-effect="non-scaling-stroke" />
        <path
            d="M 491.001 74 L 481.501 74 L 481.501 4 L 523.001 4 L 523.001 12.2 L 491.001 12.2 L 491.001 33.6 L 517.701 33.6 L 517.701 41.4 L 491.001 41.4 L 491.001 74 Z"
            id="8" vector-effect="non-scaling-stroke" />
        <path
            d="M 543.001 74 L 534.001 74 L 534.001 22 L 542.701 22 L 542.701 33.3 Q 544.001 30 546.201 27.15 Q 548.401 24.3 551.701 22.55 A 14.817 14.817 0 0 1 556.38 21.026 A 19.459 19.459 0 0 1 559.401 20.8 Q 560.901 20.8 562.401 20.95 A 18.972 18.972 0 0 1 563.455 21.084 Q 563.955 21.162 564.383 21.262 A 8.817 8.817 0 0 1 564.901 21.4 L 562.201 30.7 A 9.763 9.763 0 0 0 560.055 30.088 Q 558.96 29.9 557.701 29.9 A 12.958 12.958 0 0 0 551.071 31.746 A 15.609 15.609 0 0 0 550.651 32 Q 547.323 34.086 545.179 38.442 A 22.927 22.927 0 0 0 545.151 38.5 Q 543.388 42.107 543.07 47.328 A 39.09 39.09 0 0 0 543.001 49.7 L 543.001 74 Z"
            id="9" vector-effect="non-scaling-stroke" />
        <path
            d="M 606.501 26.2 L 606.501 22 L 614.701 22 L 614.701 61.4 A 12.15 12.15 0 0 0 614.802 63.036 Q 615.134 65.47 616.551 66.35 Q 618.401 67.5 620.601 67.5 L 618.701 74.5 A 17.722 17.722 0 0 1 614.436 74.028 Q 608.799 72.628 607.204 67.08 A 13.59 13.59 0 0 1 607.101 66.7 A 21.307 21.307 0 0 1 603.991 70.126 A 28.498 28.498 0 0 1 600.851 72.55 Q 596.901 75.2 590.801 75.2 Q 584.301 75.2 579.001 71.9 A 22.947 22.947 0 0 1 571.588 64.373 A 27.923 27.923 0 0 1 570.551 62.55 A 27.228 27.228 0 0 1 567.921 54.608 A 36.644 36.644 0 0 1 567.401 48.3 A 33.142 33.142 0 0 1 568.397 40.031 A 27.968 27.968 0 0 1 570.551 34.3 Q 573.701 28.1 579.251 24.45 A 22.297 22.297 0 0 1 590.445 20.844 A 27.388 27.388 0 0 1 592.001 20.8 A 22.584 22.584 0 0 1 596.794 21.29 A 18.703 18.703 0 0 1 600.151 22.35 A 26.002 26.002 0 0 1 604.437 24.644 A 22.103 22.103 0 0 1 606.501 26.2 Z M 605.701 60.7 L 605.701 32.8 Q 603.001 30.9 599.751 29.75 Q 596.501 28.6 592.901 28.6 A 15.924 15.924 0 0 0 587.929 29.354 A 14.024 14.024 0 0 0 584.451 31.05 A 16.301 16.301 0 0 0 579.431 36.474 A 19.962 19.962 0 0 0 578.701 37.85 A 20.663 20.663 0 0 0 576.947 43.527 A 27.678 27.678 0 0 0 576.601 48 Q 576.601 53.6 578.701 57.95 A 17.602 17.602 0 0 0 581.806 62.496 A 15.697 15.697 0 0 0 584.501 64.75 Q 588.201 67.2 592.801 67.2 Q 596.601 67.2 600.001 65.35 Q 603.401 63.5 605.701 60.7 Z"
            id="10" vector-effect="non-scaling-stroke" />
        <path
            d="M 641.601 74 L 632.601 74 L 632.601 22 L 641.301 22 L 641.301 30.7 Q 644.101 26.5 648.401 23.65 A 17.205 17.205 0 0 1 657.603 20.809 A 20.858 20.858 0 0 1 658.201 20.8 A 20.994 20.994 0 0 1 662.618 21.24 Q 665.604 21.882 667.886 23.463 A 13.128 13.128 0 0 1 668.351 23.8 A 15.751 15.751 0 0 1 673.798 31.489 A 19.154 19.154 0 0 1 673.901 31.8 Q 677.001 27.2 681.251 24 A 15.669 15.669 0 0 1 688.041 21.116 A 21.446 21.446 0 0 1 691.801 20.8 A 21.437 21.437 0 0 1 696.688 21.322 Q 700.274 22.162 702.763 24.351 A 12.994 12.994 0 0 1 704.451 26.15 A 18.992 18.992 0 0 1 707.862 33.422 Q 708.601 36.472 708.601 40.1 L 708.601 74 L 699.601 74 L 699.601 40.8 A 19.042 19.042 0 0 0 699.264 37.111 Q 698.828 34.905 697.829 33.161 A 10.982 10.982 0 0 0 697.101 32.05 A 7.974 7.974 0 0 0 691.287 28.754 A 10.678 10.678 0 0 0 690.201 28.7 A 11.926 11.926 0 0 0 683.442 30.827 A 15.996 15.996 0 0 0 681.851 32.05 Q 678.001 35.4 675.101 39.9 L 675.101 74 L 666.101 74 L 666.101 40.8 A 19.042 19.042 0 0 0 665.764 37.111 Q 665.328 34.905 664.329 33.161 A 10.982 10.982 0 0 0 663.601 32.05 A 7.974 7.974 0 0 0 657.787 28.754 A 10.678 10.678 0 0 0 656.701 28.7 A 12.02 12.02 0 0 0 650.382 30.528 A 16.244 16.244 0 0 0 648.401 31.95 Q 644.501 35.2 641.601 39.6 L 641.601 74 Z"
            id="11" vector-effect="non-scaling-stroke" />
        <path
            d="M 766.201 51.7 L 729.801 51.7 A 24.088 24.088 0 0 0 730.94 56.725 Q 732.276 60.538 734.901 63.1 Q 739.101 67.2 746.001 67.2 Q 750.501 67.2 754.101 66.25 Q 757.701 65.3 761.001 63.8 L 763.101 71.5 A 40.77 40.77 0 0 1 758.766 73.126 A 51.863 51.863 0 0 1 755.001 74.15 A 38.914 38.914 0 0 1 749.909 74.969 A 52.025 52.025 0 0 1 744.901 75.2 A 28.318 28.318 0 0 1 737.155 74.195 A 21.108 21.108 0 0 1 727.151 68.05 A 23.521 23.521 0 0 1 721.946 58.51 Q 720.601 53.845 720.601 48 A 35.359 35.359 0 0 1 721.433 40.178 A 28.84 28.84 0 0 1 723.551 34.05 A 24.642 24.642 0 0 1 728.567 26.968 A 22.887 22.887 0 0 1 731.801 24.35 A 21.048 21.048 0 0 1 742.06 20.878 A 26.205 26.205 0 0 1 744.101 20.8 Q 751.601 20.8 756.551 24.05 Q 761.501 27.3 764.001 32.8 A 28.185 28.185 0 0 1 766.427 42.664 A 33.434 33.434 0 0 1 766.501 44.9 A 75.204 75.204 0 0 1 766.21 51.597 A 69.426 69.426 0 0 1 766.201 51.7 Z M 729.701 44.4 L 758.201 44.4 A 24.355 24.355 0 0 0 757.796 39.815 Q 757.301 37.231 756.196 35.207 A 12.422 12.422 0 0 0 754.401 32.7 A 12.488 12.488 0 0 0 747.44 28.924 A 18.395 18.395 0 0 0 743.901 28.6 A 13.58 13.58 0 0 0 738.789 29.535 A 12.524 12.524 0 0 0 734.301 32.65 Q 730.501 36.7 729.701 44.4 Z"
            id="12" vector-effect="non-scaling-stroke" />
        <path
            d="M 799.301 74 L 789.401 74 L 773.001 24.4 L 781.301 21.5 L 794.701 63.8 L 806.901 25.7 L 816.601 25.7 L 828.501 63.8 L 841.801 21.5 L 849.801 24.4 L 833.301 74 L 823.401 74 L 811.401 35.3 L 799.301 74 Z"
            id="13" vector-effect="non-scaling-stroke" />
        <path
            d="M 867.901 71.75 A 24.559 24.559 0 0 0 872.499 73.84 Q 876.554 75.2 881.201 75.2 Q 888.601 75.2 894.451 71.8 Q 900.301 68.4 903.701 62.25 A 26.255 26.255 0 0 0 906.354 55.109 A 34.184 34.184 0 0 0 907.101 47.8 A 34.542 34.542 0 0 0 906.616 41.891 A 25.795 25.795 0 0 0 903.651 33.45 Q 900.201 27.4 894.351 24.1 A 24.848 24.848 0 0 0 889.709 22.073 A 27.738 27.738 0 0 0 881.201 20.8 A 31.325 31.325 0 0 0 879.621 20.839 A 26.169 26.169 0 0 0 868.001 24.1 Q 862.101 27.4 858.701 33.5 A 26.023 26.023 0 0 0 855.951 41.09 A 35.006 35.006 0 0 0 855.301 48 A 34.82 34.82 0 0 0 855.566 52.354 A 27.451 27.451 0 0 0 858.651 62.15 Q 862.001 68.3 867.901 71.75 Z M 881.201 67.2 Q 889.101 67.2 893.501 61.85 A 18.802 18.802 0 0 0 897.32 53.76 A 27.105 27.105 0 0 0 897.901 48 Q 897.901 42.8 895.701 38.45 A 19.198 19.198 0 0 0 891.529 32.881 A 18.17 18.17 0 0 0 889.751 31.45 Q 886.001 28.8 881.201 28.8 A 19.249 19.249 0 0 0 875.975 29.472 A 14.037 14.037 0 0 0 868.901 34 A 17.878 17.878 0 0 0 865.227 41.374 Q 864.501 44.306 864.501 47.8 Q 864.501 53 866.701 57.45 A 19.437 19.437 0 0 0 870.231 62.49 A 17.627 17.627 0 0 0 872.651 64.55 Q 876.401 67.2 881.201 67.2 Z"
            id="14" vector-effect="non-scaling-stroke" />
        <path
            d="M 928.101 74 L 919.101 74 L 919.101 22 L 927.801 22 L 927.801 33.3 Q 929.101 30 931.301 27.15 Q 933.501 24.3 936.801 22.55 A 14.817 14.817 0 0 1 941.48 21.026 A 19.459 19.459 0 0 1 944.501 20.8 Q 946.001 20.8 947.501 20.95 A 18.972 18.972 0 0 1 948.555 21.084 Q 949.055 21.162 949.483 21.262 A 8.817 8.817 0 0 1 950.001 21.4 L 947.301 30.7 A 9.763 9.763 0 0 0 945.155 30.088 Q 944.06 29.9 942.801 29.9 A 12.958 12.958 0 0 0 936.171 31.746 A 15.609 15.609 0 0 0 935.751 32 Q 932.423 34.086 930.279 38.442 A 22.927 22.927 0 0 0 930.251 38.5 Q 928.488 42.107 928.17 47.328 A 39.09 39.09 0 0 0 928.101 49.7 L 928.101 74 Z"
            id="15" vector-effect="non-scaling-stroke" />
        <path
            d="M 1001.101 69 L 994.901 75 L 968.001 47.3 L 968.001 74 L 959.001 74 L 959.001 0 L 968.001 0 L 968.001 42.3 L 991.501 21 L 996.701 26.7 L 976.601 44.5 L 1001.101 69 Z"
            id="16" vector-effect="non-scaling-stroke" />
    </g>
</svg>